<?xml version="1.0" ?><svg fill="none" height="24" viewBox="0 0 24 24" width="24" xmlns="http://www.w3.org/2000/svg"><g id="Like"><path clip-rule="evenodd" d="M12 1.75C6.33908 1.75 1.75 6.33908 1.75 12C1.75 17.6609 6.33908 22.25 12 22.25C17.6609 22.25 22.25 17.6609 22.25 12C22.25 6.33908 17.6609 1.75 12 1.75ZM0.25 12C0.25 5.51065 5.51065 0.25 12 0.25C18.4893 0.25 23.75 5.51065 23.75 12C23.75 18.4893 18.4893 23.75 12 23.75C5.51065 23.75 0.25 18.4893 0.25 12Z" fill="black" fill-rule="evenodd" id="Ellipse 8 (Stroke)"/><path clip-rule="evenodd" d="M9.4932 8.93498C9.65637 9.07741 9.75 9.28342 9.75 9.5V18C9.75 18.4142 9.41421 18.75 9 18.75H6C5.58579 18.75 5.25 18.4142 5.25 18V9.90909C5.25 9.53404 5.52705 9.21664 5.89867 9.16597L8.89867 8.75688C9.11327 8.72762 9.33004 8.79256 9.4932 8.93498ZM6.75 10.5638V17.25H8.25V10.3592L6.75 10.5638Z" fill="black" fill-rule="evenodd" id="Rectangle 14 (Stroke)"/><path clip-rule="evenodd" d="M12.8912 5.56169C13.7244 4.45079 15.4738 4.80509 15.809 6.15263C15.8944 6.49557 15.9375 6.84764 15.9375 7.20104V7.9482C15.9375 8.38298 15.8778 8.8157 15.7601 9.23424L15.615 9.74999H16.926C17.9416 9.74999 18.7439 10.6117 18.6716 11.6247L18.3808 15.6959C18.278 17.135 17.0805 18.25 15.6378 18.25H9C8.58579 18.25 8.25 17.9142 8.25 17.5V10.5C8.25 10.1772 8.45657 9.89057 8.76283 9.78848L9.67014 9.48604C9.91134 9.40564 10.1223 9.25359 10.2749 9.05019L12.8912 5.56169ZM14.3534 6.51479C14.3233 6.3937 14.1661 6.36186 14.0912 6.46169L11.4749 9.95019C11.1392 10.3977 10.6751 10.7322 10.1445 10.9091L9.75 11.0406V16.75H15.6378C16.2936 16.75 16.8379 16.2432 16.8846 15.5891L17.1754 11.5178C17.1857 11.3731 17.0711 11.25 16.926 11.25H14.625C14.3902 11.25 14.169 11.14 14.0272 10.9529C13.8854 10.7657 13.8394 10.523 13.903 10.2969L14.3161 8.82812C14.3967 8.54175 14.4375 8.24568 14.4375 7.9482V7.20104C14.4375 6.96972 14.4093 6.73926 14.3534 6.51479Z" fill="black" fill-rule="evenodd" id="Rectangle 15 (Stroke)"/></g></svg>